<svg xmlns="http://www.w3.org/2000/svg" xmlns:xlink="http://www.w3.org/1999/xlink" viewBox="0,0,256,256" width="50px" height="50px" fill-rule="nonzero"><g transform="translate(51.2,51.2) scale(0.6,0.6)"><g fill="#ffffff" fill-rule="nonzero" stroke="none" stroke-width="1" stroke-linecap="butt" stroke-linejoin="miter" stroke-miterlimit="10" stroke-dasharray="" stroke-dashoffset="0" font-family="none" font-weight="none" font-size="none" text-anchor="none" style="mix-blend-mode: normal"><g transform="translate(-23.03967,-25.54578) scale(5.12,5.12)"><path d="M28.875,0c-0.01953,0.00781 -0.04297,0.01953 -0.0625,0.03125l-28,5.3125c-0.47656,0.08984 -0.82031,0.51172 -0.8125,1v37.3125c-0.00781,0.48828 0.33594,0.91016 0.8125,1l28,5.3125c0.28906,0.05469 0.58984,-0.01953 0.82031,-0.20703c0.22656,-0.1875 0.36328,-0.46484 0.36719,-0.76172v-5h17c1.09375,0 2,-0.90625 2,-2v-34c0,-1.09375 -0.90625,-2 -2,-2h-17v-5c0.00391,-0.28906 -0.12109,-0.5625 -0.33594,-0.75391c-0.21484,-0.19141 -0.50391,-0.28125 -0.78906,-0.24609zM28,2.1875v4.34375c-0.13281,0.27734 -0.13281,0.59766 0,0.875v35.40625c-0.02734,0.13281 -0.02734,0.27344 0,0.40625v4.59375l-26,-4.96875v-35.6875zM30,8h17v34h-17v-5h4v-2h-4v-6h4v-2h-4v-5h4v-2h-4v-5h4v-2h-4zM36,13v2h8v-2zM6.6875,15.6875l5.46875,9.34375l-5.96875,9.34375h5l3.25,-6.03125c0.22656,-0.58203 0.375,-1.02734 0.4375,-1.3125h0.03125c0.12891,0.60938 0.25391,1.02344 0.375,1.25l3.25,6.09375h4.96875l-5.75,-9.4375l5.59375,-9.25h-4.6875l-2.96875,5.53125c-0.28516,0.72266 -0.48828,1.29297 -0.59375,1.65625h-0.03125c-0.16406,-0.60937 -0.35156,-1.15234 -0.5625,-1.59375l-2.6875,-5.59375zM36,20v2h8v-2zM36,27v2h8v-2zM36,35v2h8v-2z"></path></g></g><g fill="#ffffff" fill-rule="nonzero" stroke="none" stroke-width="1" stroke-linecap="butt" stroke-linejoin="miter" stroke-miterlimit="10" stroke-dasharray="" stroke-dashoffset="0" font-family="none" font-weight="none" font-size="none" text-anchor="none" style="mix-blend-mode: normal"><g><path d="M54.475,280.954l-11.5,-2.85l4.2,-37h40.8v12.05h-28.95l-1.8,15.65c3.43333,-1.83333 7.08333,-2.75 10.95,-2.75v0c6.93333,0 12.36667,2.15 16.3,6.45c3.93333,4.3 5.9,10.31667 5.9,18.05v0c0,4.7 -0.99,8.91 -2.97,12.63c-1.98667,3.71333 -4.83,6.59667 -8.53,8.65c-3.7,2.04667 -8.06667,3.07 -13.1,3.07v0c-4.4,0 -8.48333,-0.89 -12.25,-2.67c-3.76667,-1.78667 -6.74333,-4.29667 -8.93,-7.53c-2.18,-3.23333 -3.33667,-6.91667 -3.47,-11.05v0h14.3c0.3,3.03333 1.36,5.39333 3.18,7.08c1.81333,1.68 4.18667,2.52 7.12,2.52v0c3.26667,0 5.78333,-1.17333 7.55,-3.52c1.76667,-2.35333 2.65,-5.68 2.65,-9.98v0c0,-4.13333 -1.01667,-7.3 -3.05,-9.5c-2.03333,-2.2 -4.91667,-3.3 -8.65,-3.3v0c-3.43333,0 -6.21667,0.9 -8.35,2.7v0zM148.575,270.404v13.4c0,10.06667 -2.08333,17.76667 -6.25,23.1c-4.16667,5.33333 -10.26667,8 -18.3,8v0c-7.93333,0 -14,-2.61667 -18.2,-7.85c-4.2,-5.23333 -6.35,-12.73333 -6.45,-22.5v0v-13.4c0,-10.16667 2.11,-17.88333 6.33,-23.15c4.21333,-5.26667 10.28667,-7.9 18.22,-7.9c7.93333,0 14,2.60667 18.2,7.82c4.2,5.22 6.35,12.71333 6.45,22.48zM134.125,286.404v-17.3c0,-6.03333 -0.82333,-10.42333 -2.47,-13.17c-1.65333,-2.75333 -4.23,-4.13 -7.73,-4.13v0c-3.4,0 -5.90667,1.31 -7.52,3.93c-1.62,2.61333 -2.48,6.70333 -2.58,12.27v0v17.7c0,5.93333 0.81,10.34333 2.43,13.23c1.61333,2.88 4.20333,4.32 7.77,4.32v0c3.53333,0 6.08333,-1.38333 7.65,-4.15c1.56667,-2.76667 2.38333,-7 2.45,-12.7zM207.325,270.404v13.4c0,10.06667 -2.08333,17.76667 -6.25,23.1c-4.16667,5.33333 -10.26667,8 -18.3,8v0c-7.93333,0 -14,-2.61667 -18.2,-7.85c-4.2,-5.23333 -6.35,-12.73333 -6.45,-22.5v0v-13.4c0,-10.16667 2.10667,-17.88333 6.32,-23.15c4.22,-5.26667 10.29667,-7.9 18.23,-7.9c7.93333,0 14,2.60667 18.2,7.82c4.2,5.22 6.35,12.71333 6.45,22.48zM192.875,286.404v-17.3c0,-6.03333 -0.82333,-10.42333 -2.47,-13.17c-1.65333,-2.75333 -4.23,-4.13 -7.73,-4.13v0c-3.4,0 -5.90667,1.31 -7.52,3.93c-1.62,2.61333 -2.48,6.70333 -2.58,12.27v0v17.7c0,5.93333 0.81,10.34333 2.43,13.23c1.61333,2.88 4.20333,4.32 7.77,4.32v0c3.53333,0 6.08333,-1.38333 7.65,-4.15c1.56667,-2.76667 2.38333,-7 2.45,-12.7zM266.075,270.404v13.4c0,10.06667 -2.08333,17.76667 -6.25,23.1c-4.16667,5.33333 -10.26667,8 -18.3,8v0c-7.93333,0 -14,-2.61667 -18.2,-7.85c-4.2,-5.23333 -6.35,-12.73333 -6.45,-22.5v0v-13.4c0,-10.16667 2.10667,-17.88333 6.32,-23.15c4.22,-5.26667 10.29667,-7.9 18.23,-7.9c7.93333,0 14,2.60667 18.2,7.82c4.2,5.22 6.35,12.71333 6.45,22.48zM251.625,286.404v-17.3c0,-6.03333 -0.82333,-10.42333 -2.47,-13.17c-1.65333,-2.75333 -4.23,-4.13 -7.73,-4.13v0c-3.4,0 -5.90667,1.31 -7.52,3.93c-1.62,2.61333 -2.48,6.70333 -2.58,12.27v0v17.7c0,5.93333 0.81,10.34333 2.43,13.23c1.61333,2.88 4.20333,4.32 7.77,4.32v0c3.53333,0 6.08333,-1.38333 7.65,-4.15c1.56667,-2.76667 2.38333,-7 2.45,-12.7z"></path></g></g></g></svg>