<?xml version="1.0" encoding="UTF-8"?>
<!DOCTYPE svg PUBLIC "-//W3C//DTD SVG 1.1//EN" "http://www.w3.org/Graphics/SVG/1.1/DTD/svg11.dtd">
<svg xmlns="http://www.w3.org/2000/svg" version="1.1" width="96px" height="96px" style="shape-rendering:geometricPrecision; text-rendering:geometricPrecision; image-rendering:optimizeQuality; fill-rule:evenodd; clip-rule:evenodd" xmlns:xlink="http://www.w3.org/1999/xlink">
<g><path style="opacity:0.831" fill="#fefffe" d="M 24.5,17.5 C 32.1739,17.3336 39.8406,17.5003 47.5,18C 52,22.5 56.5,27 61,31.5C 61.6667,42.1667 61.6667,52.8333 61,63.5C 60.5,64 60,64.5 59.5,65C 53.6047,66.1244 47.6047,66.6244 41.5,66.5C 36.1667,66.3333 30.8333,66.1667 25.5,66C 24.5838,65.6258 23.7504,65.1258 23,64.5C 22.3333,49.5 22.3333,34.5 23,19.5C 23.7172,18.9558 24.2172,18.2891 24.5,17.5 Z M 27.5,23.5 C 32.8333,23.5 38.1667,23.5 43.5,23.5C 43.5,27.1667 43.5,30.8333 43.5,34.5C 41.8333,34.5 40.1667,34.5 38.5,34.5C 38.1065,37.9297 38.7732,41.0964 40.5,44C 38.9125,47.6311 36.2458,50.1311 32.5,51.5C 30.7764,55.6122 32.1098,57.1122 36.5,56C 38.2134,54.6218 39.5467,52.9552 40.5,51C 42.9776,48.8186 44.9776,49.1519 46.5,52C 48.1341,52.4935 49.8008,52.6602 51.5,52.5C 51.7852,50.712 51.4519,49.0453 50.5,47.5C 47.9639,47.1556 45.7972,46.1556 44,44.5C 44.1519,41.553 44.3185,38.553 44.5,35.5C 48.1667,35.5 51.8333,35.5 55.5,35.5C 55.5,43.8333 55.5,52.1667 55.5,60.5C 46.1667,60.5 36.8333,60.5 27.5,60.5C 27.5,48.1667 27.5,35.8333 27.5,23.5 Z"/></g>
<g><path style="opacity:0.756" fill="#fefffe" d="M 44.5,71.5 C 50.7657,71.4978 53.4324,74.6645 52.5,81C 53.3907,86.4121 51.2241,89.5788 46,90.5C 43.849,90.3569 42.1824,89.3569 41,87.5C 40.3333,83.1667 40.3333,78.8333 41,74.5C 42.1451,73.3636 43.3117,72.3636 44.5,71.5 Z M 45.5,75.5 C 47.8837,76.4251 48.8837,78.2585 48.5,81C 47.0068,88.2485 45.6735,88.2485 44.5,81C 44.5811,79.0762 44.9144,77.2429 45.5,75.5 Z"/></g>
<g><path style="opacity:0.696" fill="#fefffe" d="M 58.5,71.5 C 64.7046,71.5249 67.3713,74.6916 66.5,81C 66.7006,89.5533 63.0339,92.0533 55.5,88.5C 52.1938,81.8868 53.1938,76.2201 58.5,71.5 Z M 59.5,75.5 C 60.1174,75.6107 60.6174,75.944 61,76.5C 61.8236,79.8823 61.657,83.2156 60.5,86.5C 59.914,86.2907 59.414,85.9574 59,85.5C 58.2534,82.0764 58.42,78.7431 59.5,75.5 Z"/></g>
<g><path style="opacity:0.708" fill="#fefffe" d="M 71.5,71.5 C 79.1255,72.4291 81.9589,76.7624 80,84.5C 79.1939,89.4856 76.3605,91.3189 71.5,90C 69.6667,89.5 68.5,88.3333 68,86.5C 67.3333,82.8333 67.3333,79.1667 68,75.5C 68.6897,73.6498 69.8564,72.3164 71.5,71.5 Z M 73.5,75.5 C 74.1174,75.6107 74.6174,75.944 75,76.5C 75.6667,79.5 75.6667,82.5 75,85.5C 74.586,85.9574 74.086,86.2907 73.5,86.5C 70.8411,82.8117 70.8411,79.145 73.5,75.5 Z"/></g>
<g><path style="opacity:0.752" fill="#fefffe" d="M 27.5,72.5 C 31.1667,72.5 34.8333,72.5 38.5,72.5C 38.5,73.5 38.5,74.5 38.5,75.5C 36.1667,75.5 33.8333,75.5 31.5,75.5C 31.1192,77.9418 31.7859,78.6085 33.5,77.5C 38.4531,79.6475 39.7865,83.3142 37.5,88.5C 33.7647,91.2575 30.2647,90.9241 27,87.5C 26.5172,86.552 26.3505,85.552 26.5,84.5C 28.8273,84.2471 30.8273,84.9137 32.5,86.5C 34.5962,85.3803 34.9295,83.8803 33.5,82C 32.1011,81.4054 30.7678,81.5721 29.5,82.5C 28.3279,82.0814 27.3279,81.4147 26.5,80.5C 27.3928,77.9159 27.7261,75.2492 27.5,72.5 Z"/></g>
</svg>
