<?xml version="1.0" encoding="UTF-8"?>
<!DOCTYPE svg PUBLIC "-//W3C//DTD SVG 1.1//EN" "http://www.w3.org/Graphics/SVG/1.1/DTD/svg11.dtd">
<svg xmlns="http://www.w3.org/2000/svg" version="1.1" width="96px" height="96px" style="shape-rendering:geometricPrecision; text-rendering:geometricPrecision; image-rendering:optimizeQuality; fill-rule:evenodd; clip-rule:evenodd" xmlns:xlink="http://www.w3.org/1999/xlink">
<g><path style="opacity:0.831" fill="#fefffe" d="M 24.5,17.5 C 32.1739,17.3336 39.8406,17.5003 47.5,18C 52,22.5 56.5,27 61,31.5C 61.6667,42.1667 61.6667,52.8333 61,63.5C 60.5,64 60,64.5 59.5,65C 53.6047,66.1244 47.6047,66.6244 41.5,66.5C 36.1667,66.3333 30.8333,66.1667 25.5,66C 24.5838,65.6258 23.7504,65.1258 23,64.5C 22.3333,49.5 22.3333,34.5 23,19.5C 23.7172,18.9558 24.2172,18.2891 24.5,17.5 Z M 27.5,23.5 C 32.8333,23.5 38.1667,23.5 43.5,23.5C 43.5,27.1667 43.5,30.8333 43.5,34.5C 41.8333,34.5 40.1667,34.5 38.5,34.5C 38.1065,37.9297 38.7732,41.0964 40.5,44C 38.9125,47.6311 36.2458,50.1311 32.5,51.5C 30.7764,55.6122 32.1098,57.1122 36.5,56C 38.2134,54.6218 39.5467,52.9552 40.5,51C 42.9776,48.8186 44.9776,49.1519 46.5,52C 48.1341,52.4935 49.8008,52.6602 51.5,52.5C 51.7852,50.712 51.4519,49.0453 50.5,47.5C 47.9639,47.1556 45.7972,46.1556 44,44.5C 44.1519,41.553 44.3185,38.553 44.5,35.5C 48.1667,35.5 51.8333,35.5 55.5,35.5C 55.5,43.8333 55.5,52.1667 55.5,60.5C 46.1667,60.5 36.8333,60.5 27.5,60.5C 27.5,48.1667 27.5,35.8333 27.5,23.5 Z"/></g>
<g><path style="opacity:0.708" fill="#fefffe" d="M 50.5,71.5 C 58.1255,72.4291 60.9589,76.7624 59,84.5C 58.1939,89.4856 55.3605,91.3189 50.5,90C 48.6667,89.5 47.5,88.3333 47,86.5C 46.3333,82.8333 46.3333,79.1667 47,75.5C 47.6897,73.6498 48.8564,72.3164 50.5,71.5 Z M 52.5,75.5 C 53.1174,75.6107 53.6174,75.944 54,76.5C 54.6667,79.5 54.6667,82.5 54,85.5C 53.586,85.9574 53.086,86.2907 52.5,86.5C 49.8411,82.8117 49.8411,79.145 52.5,75.5 Z"/></g>
<g><path style="opacity:0.756" fill="#fefffe" d="M 64.5,71.5 C 67.505,71.253 70.005,72.253 72,74.5C 72.6667,78.8333 72.6667,83.1667 72,87.5C 67.9266,91.6185 64.26,91.2852 61,86.5C 60.3333,82.8333 60.3333,79.1667 61,75.5C 61.6897,73.6498 62.8564,72.3164 64.5,71.5 Z M 65.5,75.5 C 66.4959,75.4142 67.3292,75.7476 68,76.5C 68.6667,79.5 68.6667,82.5 68,85.5C 67.586,85.9574 67.086,86.2907 66.5,86.5C 64.2016,83.0627 63.8683,79.3961 65.5,75.5 Z"/></g>
<g><path style="opacity:0.645" fill="#fefffe" d="M 38.5,72.5 C 39.8333,72.5 41.1667,72.5 42.5,72.5C 42.5,78.5 42.5,84.5 42.5,90.5C 40.8333,90.5 39.1667,90.5 37.5,90.5C 37.8256,86.1161 37.4922,81.7828 36.5,77.5C 34.8333,79.1667 33.8333,78.8333 33.5,76.5C 34.6616,74.4616 36.3283,73.1282 38.5,72.5 Z"/></g>
</svg>
