<?xml version="1.0" encoding="UTF-8"?>
<!DOCTYPE svg PUBLIC "-//W3C//DTD SVG 1.1//EN" "http://www.w3.org/Graphics/SVG/1.1/DTD/svg11.dtd">
<svg xmlns="http://www.w3.org/2000/svg" version="1.1" width="96px" height="96px" style="shape-rendering:geometricPrecision; text-rendering:geometricPrecision; image-rendering:optimizeQuality; fill-rule:evenodd; clip-rule:evenodd" xmlns:xlink="http://www.w3.org/1999/xlink">
<g><path style="opacity:0.831" fill="#fefffe" d="M 24.5,17.5 C 32.1739,17.3336 39.8406,17.5003 47.5,18C 52,22.5 56.5,27 61,31.5C 61.6667,42.1667 61.6667,52.8333 61,63.5C 60.5,64 60,64.5 59.5,65C 53.6047,66.1244 47.6047,66.6244 41.5,66.5C 36.1667,66.3333 30.8333,66.1667 25.5,66C 24.5838,65.6258 23.7504,65.1258 23,64.5C 22.3333,49.5 22.3333,34.5 23,19.5C 23.7172,18.9558 24.2172,18.2891 24.5,17.5 Z M 27.5,23.5 C 32.8333,23.5 38.1667,23.5 43.5,23.5C 43.5,27.1667 43.5,30.8333 43.5,34.5C 41.8333,34.5 40.1667,34.5 38.5,34.5C 38.1065,37.9297 38.7732,41.0964 40.5,44C 38.9125,47.6311 36.2458,50.1311 32.5,51.5C 30.7764,55.6122 32.1098,57.1122 36.5,56C 38.2134,54.6218 39.5467,52.9552 40.5,51C 42.9776,48.8186 44.9776,49.1519 46.5,52C 48.1341,52.4935 49.8008,52.6602 51.5,52.5C 51.7852,50.712 51.4519,49.0453 50.5,47.5C 47.9639,47.1556 45.7972,46.1556 44,44.5C 44.1519,41.553 44.3185,38.553 44.5,35.5C 48.1667,35.5 51.8333,35.5 55.5,35.5C 55.5,43.8333 55.5,52.1667 55.5,60.5C 46.1667,60.5 36.8333,60.5 27.5,60.5C 27.5,48.1667 27.5,35.8333 27.5,23.5 Z"/></g>
<g><path style="opacity:0.692" fill="#fefffe" d="M 44.5,71.5 C 50.2044,72.0418 52.871,75.2085 52.5,81C 52.5842,89.7022 48.7508,92.2022 41,88.5C 38.8467,83.3965 39.0133,78.3965 41.5,73.5C 42.6016,72.8243 43.6016,72.1577 44.5,71.5 Z M 45.5,75.5 C 46.1174,75.6107 46.6174,75.944 47,76.5C 47.6667,79.5 47.6667,82.5 47,85.5C 46.586,85.9574 46.086,86.2907 45.5,86.5C 44.2418,82.7897 44.2418,79.123 45.5,75.5 Z"/></g>
<g><path style="opacity:0.756" fill="#fefffe" d="M 57.5,71.5 C 60.505,71.253 63.005,72.253 65,74.5C 65.6667,78.8333 65.6667,83.1667 65,87.5C 60.9266,91.6185 57.26,91.2852 54,86.5C 53.3333,82.8333 53.3333,79.1667 54,75.5C 54.6897,73.6498 55.8564,72.3164 57.5,71.5 Z M 58.5,75.5 C 59.4959,75.4142 60.3292,75.7476 61,76.5C 61.6667,79.5 61.6667,82.5 61,85.5C 60.586,85.9574 60.086,86.2907 59.5,86.5C 57.2016,83.0627 56.8683,79.3961 58.5,75.5 Z"/></g>
<g><path style="opacity:0.756" fill="#fefffe" d="M 71.5,71.5 C 74.9612,71.1459 77.4612,72.4792 79,75.5C 79.6667,79.5 79.6667,83.5 79,87.5C 75.4123,91.3927 71.7456,91.3927 68,87.5C 67.3333,83.1667 67.3333,78.8333 68,74.5C 69.1451,73.3636 70.3117,72.3636 71.5,71.5 Z M 72.5,75.5 C 74.9311,76.6068 75.9311,78.6068 75.5,81.5C 75.3333,82.8333 75.1667,84.1667 75,85.5C 74,86.8333 73,86.8333 72,85.5C 71.2534,82.0764 71.42,78.7431 72.5,75.5 Z"/></g>
<g><path style="opacity:0.646" fill="#fefffe" d="M 31.5,72.5 C 32.8333,72.5 34.1667,72.5 35.5,72.5C 35.5,78.5 35.5,84.5 35.5,90.5C 33.8333,90.5 32.1667,90.5 30.5,90.5C 30.8256,86.1161 30.4922,81.7828 29.5,77.5C 27.8333,79.1667 26.8333,78.8333 26.5,76.5C 27.6616,74.4616 29.3283,73.1282 31.5,72.5 Z"/></g>
</svg>
