<svg width="44" height="40" viewBox="0 0 44 40" fill="none" xmlns="http://www.w3.org/2000/svg">
<g clip-path="url(#clip0_602_2745)">
<path d="M10.0749 21.3393C10.5442 27.5056 13.8539 29.3991 21.5739 29.3991C30.3783 29.3991 32.5956 26.5588 32.9031 21.3393H43.1317C42.8161 29.8685 39.5064 40 21.5659 40C3.62533 40 0.161845 29.561 0 21.3393H10.0749Z" fill="white"/>
<path d="M0 18.8064C0.315598 7.26684 6.13393 0 21.582 0C37.0301 0 42.8323 6.95124 43.1479 18.8064H32.9193C32.6037 13.2875 29.7633 10.5928 21.5901 10.5928C13.417 10.5928 10.3985 13.2875 10.091 18.8064H0Z" fill="white"/>
</g>
<defs>
<clipPath id="clip0_602_2745">
<rect width="43.1398" height="40" fill="white"/>
</clipPath>
</defs>
</svg>
